# File created by Blade
# Date/Time:  Tue Sep 28 14:35:47 2010
#---------------------------------------------------------
:version 1.10
:name HOM
:units
  mass 1.0
  length 1.000000
  angle deg
:documentation
     Acclaim Skeleton File
:root
   axis xyz
   order TX TY TZ RX RY RZ
   position 0.000000 0.000000 0.000000
   orientation 0 0 0
:bonedata
   begin
      id 1
      name LeftUpLeg_dum
      direction 1.000000 0.000000 0.000000
      length 3.677894
      axis 0.0 0.0 0.0 xyz
   end
   begin
      id 2
      name RightUpLeg_dum
      direction -1.000000 0.000000 0.000000
      length 3.677894
      axis 0.0 0.0 0.0 xyz
   end
   begin
      id 3
      name Spine_dum
      direction 0.000000 1.000000 0.000000
      length 0.039370
      axis 0.0 0.0 0.0 xyz
   end
   begin
      id 4
      name LeftUpLeg
      direction 0.000000 -1.000000 0.000000
      length 18.389491
      axis 0.0 0.0 0.0 xyz
      dof rx ry rz
   end
   begin
      id 5
      name LeftLeg
      direction 0.000000 -1.000000 0.000000
      length 16.918313
      axis 0.0 0.0 0.0 xyz
      dof rx ry rz
   end
   begin
      id 6
      name LeftFoot
      direction 0.000000 -0.258819 0.965926
      length 6.436326
      axis 15.0 0.0 0.0 xyz
      dof rx ry rz
   end
   begin
      id 7
      name LeftToeBase
      direction 0.000000 0.000000 1.000000
      length 2.952750
      axis 0.0 0.0 0.0 xyz
      dof rx ry rz
   end
   begin
      id 8
      name RightUpLeg
      direction 0.000000 -1.000000 0.000000
      length 18.389491
      axis 0.0 0.0 0.0 xyz
      dof rx ry rz
   end
   begin
      id 9
      name RightLeg
      direction 0.000000 -1.000000 0.000000
      length 16.918313
      axis 0.0 0.0 0.0 xyz
      dof rx ry rz
   end
   begin
      id 10
      name RightFoot
      direction 0.000000 -0.258819 0.965926
      length 6.436326
      axis 15.0 0.0 0.0 xyz
      dof rx ry rz
   end
   begin
      id 11
      name RightToeBase
      direction 0.000000 0.000000 1.000000
      length 2.952750
      axis 0.0 0.0 0.0 xyz
      dof rx ry rz
   end
   begin
      id 12
      name Spine
      direction 0.000000 1.000000 0.000000
      length 9.194745
      axis 0.0 0.0 0.0 xyz
      dof rx ry rz
   end
   begin
      id 13
      name Spine1
      direction 0.000000 1.000000 0.000000
      length 0.000000
      axis 0.0 0.0 0.0 xyz
      dof rx ry rz
   end
   begin
      id 14
      name Spine1_dum1
      direction 0.000000 1.000000 0.000000
      length 9.194745
      axis 0.0 0.0 0.0 xyz
   end
   begin
      id 15
      name Spine1_dum2
      direction 0.000000 1.000000 0.000000
      length 9.194745
      axis 0.0 0.0 0.0 xyz
   end
   begin
      id 16
      name Spine1_dum3
      direction 0.000000 1.000000 0.000000
      length 9.194745
      axis 0.0 0.0 0.0 xyz
   end
   begin
      id 17
      name Neck
      direction 0.000000 1.000000 0.000000
      length 4.229598
      axis 0.0 0.0 0.0 xyz
      dof rx ry rz
   end
   begin
      id 18
      name Head
      direction 0.000000 1.000000 0.000000
      length 4.527550
      axis 0.0 0.0 0.0 xyz
      dof rx ry rz
   end
   begin
      id 19
      name LeftShoulder
      direction 1.000000 -0.000004 0.000000
      length 5.516839
      axis 0.0 0.0 -90.0 xyz
      dof rx ry rz
   end
   begin
      id 20
      name LeftArm
      direction 1.000000 -0.000004 0.000000
      length 11.033679
      axis 0.0 0.0 -90.0 xyz
      dof rx ry rz
   end
   begin
      id 21
      name LeftForeArm
      direction 1.000000 -0.000004 0.000000
      length 10.114232
      axis 0.0 0.0 -90.0 xyz
      dof rx ry rz
   end
   begin
      id 22
      name LeftHand
      direction 0.000000 0.000000 0.000000
      length 0.000000
      axis 0.0 0.0 -90.0 xyz
      dof rx ry rz
   end
   begin
      id 23
      name LeftHand_dum1
      direction 0.000000 0.000000 0.000000
      length 0.000000
      axis 0.0 0.0 -90.0 xyz
   end
   begin
      id 24
      name LeftHand_dum2
      direction 1.000000 -0.000004 0.000000
      length 3.937000
      axis 0.0 0.0 -90.0 xyz
   end
   begin
      id 25
      name LeftHandThumb
      direction 0.000000 0.000000 1.000000
      length 3.937000
      axis 0.0 0.0 -90.0 xyz
      dof rx ry rz
   end
   begin
      id 26
      name RightShoulder
      direction -1.000000 -0.000004 0.000000
      length 5.516839
      axis 0.0 0.0 90.0 xyz
      dof rx ry rz
   end
   begin
      id 27
      name RightArm
      direction -1.000000 -0.000004 0.000000
      length 11.033679
      axis 0.0 0.0 90.0 xyz
      dof rx ry rz
   end
   begin
      id 28
      name RightForeArm
      direction -1.000000 -0.000004 0.000000
      length 10.114232
      axis 0.0 0.0 90.0 xyz
      dof rx ry rz
   end
   begin
      id 29
      name RightHand
      direction 0.000000 0.000000 0.000000
      length 0.000000
      axis 0.0 0.0 90.0 xyz
      dof rx ry rz
   end
   begin
      id 30
      name RightHand_dum1
      direction 0.000000 0.000000 0.000000
      length 0.000000
      axis 0.0 0.0 90.0 xyz
   end
   begin
      id 31
      name RightHand_dum2
      direction -1.000000 -0.000004 0.000000
      length 5.393690
      axis 0.0 0.0 90.0 xyz
   end
   begin
      id 32
      name RightHandThumb
      direction 0.000000 0.000000 1.000000
      length 3.937000
      axis 0.0 0.0 90.0 xyz
      dof rx ry rz
   end
:hierarchy
   begin
      root LeftUpLeg_dum RightUpLeg_dum Spine_dum
      LeftUpLeg_dum LeftUpLeg
      RightUpLeg_dum RightUpLeg
      Spine_dum Spine
      LeftUpLeg LeftLeg
      LeftLeg LeftFoot
      LeftFoot LeftToeBase
      RightUpLeg RightLeg
      RightLeg RightFoot
      RightFoot RightToeBase
      Spine Spine1
      Spine1 Spine1_dum1 Spine1_dum2 Spine1_dum3
      Spine1_dum1 Neck
      Spine1_dum2 LeftShoulder
      Spine1_dum3 RightShoulder
      Neck Head
      LeftShoulder LeftArm
      LeftArm LeftForeArm
      LeftForeArm LeftHand
      LeftHand LeftHand_dum1 LeftHand_dum2
      LeftHand_dum1 LeftHandThumb
      RightShoulder RightArm
      RightArm RightForeArm
      RightForeArm RightHand
      RightHand RightHand_dum1 RightHand_dum2
      RightHand_dum1 RightHandThumb
   end

# File created by Blade
# Date/Time:  Tue Sep 28 14:35:42 2010
# Frame Rate: 200.000 fps
#------------------------------------------------------
:FULLY-SPECIFIED
:DEGREES
321
root  1.542761 37.763659 -57.317511 8.983697 0.652469 -4.283814
LeftUpLeg  -12.586773 4.191039 0.347697
LeftLeg  15.874156 -0.000000 0.000000
LeftFoot  -1.653265 9.918035 9.174230
LeftToeBase  -9.800573 0.000000 -0.000000
RightUpLeg  -25.465777 -17.577221 2.991555
RightLeg  52.133411 -0.000000 0.000000
RightFoot  9.715284 -3.411214 -17.507694
RightToeBase  -14.742678 0.000000 -0.000000
Spine  -15.008529 -4.686798 -2.080675
Spine1  15.713428 -2.627219 7.196452
Neck  5.354657 2.886093 -7.269920
Head  -11.116493 2.208951 2.449598
LeftShoulder  -5.600612 -9.688767 -26.455589
LeftArm  4.389437 39.419655 -34.579772
LeftForeArm  45.353096 -0.000000 0.000000
LeftHand  8.402021 -13.306293 4.882231
LeftHandThumb  0.000000 -0.000000 0.000000
RightShoulder  2.163613 6.417109 23.127173
RightArm  -3.939287 -51.390430 40.388666
RightForeArm  27.872340 -0.000000 0.000000
RightHand  5.368828 7.780713 2.087852
RightHandThumb  0.000000 -0.000000 0.000000
322
root  1.555656 37.774016 -57.207230 8.932176 0.732542 -4.276578
LeftUpLeg  -12.464479 4.399424 0.325182
LeftLeg  16.092439 -0.000000 0.000000
LeftFoot  -1.717615 9.718157 9.271882
LeftToeBase  -10.155299 0.000000 -0.000000
RightUpLeg  -25.936434 -17.557961 3.180173
RightLeg  51.553867 -0.000000 0.000000
RightFoot  9.222006 -3.480283 -17.406873
RightToeBase  -14.524409 0.000000 -0.000000
Spine  -14.856024 -4.677121 -2.065162
Spine1  15.802637 -2.631817 7.204042
Neck  5.301670 2.817169 -7.297453
Head  -11.316196 2.130021 2.434794
LeftShoulder  -5.446926 -10.198212 -26.404729
LeftArm  4.338328 39.641369 -34.611900
LeftForeArm  45.460953 -0.000000 0.000000
LeftHand  8.631035 -12.044479 4.668264
LeftHandThumb  0.000000 -0.000000 0.000000
RightShoulder  2.202079 6.350978 23.124119
RightArm  -3.733185 -51.101411 40.295253
RightForeArm  27.651207 -0.000000 0.000000
RightHand  5.335674 8.479632 2.314900
RightHandThumb  0.000000 -0.000000 0.000000
323
root  1.568476 37.771221 -57.063298 8.904089 0.833309 -4.279937
LeftUpLeg  -12.264378 4.732547 0.304763
LeftLeg  16.200837 -0.000000 0.000000
LeftFoot  -1.988169 9.417424 9.400120
LeftToeBase  -10.056581 0.000000 -0.000000
RightUpLeg  -26.397726 -17.624806 3.394107
RightLeg  50.976156 -0.000000 0.000000
RightFoot  9.056530 -3.551918 -17.404151
RightToeBase  -14.967482 0.000000 -0.000000
Spine  -14.734264 -4.680376 -2.033930
Spine1  15.758115 -2.643471 7.219204
Neck  5.268515 2.771539 -7.311769
Head  -11.292746 2.069932 2.491793
LeftShoulder  -5.389439 -10.365293 -26.334836
LeftArm  4.360690 39.650813 -34.621646
LeftForeArm  45.703441 -0.000000 0.000000
LeftHand  8.620503 -12.283957 4.776720
LeftHandThumb  0.000000 -0.000000 0.000000
RightShoulder  2.167176 6.066665 23.084494
RightArm  -3.508984 -50.759602 40.170661
RightForeArm  27.461917 -0.000000 0.000000
RightHand  5.460330 8.665400 2.401430
RightHandThumb  0.000000 -0.000000 0.000000
324
root  1.582794 37.766514 -56.900012 8.908104 0.960048 -4.304010
LeftUpLeg  -11.969268 5.007825 0.317645
LeftLeg  16.095574 -0.000000 0.000000
LeftFoot  -2.270945 9.083032 9.446341
LeftToeBase  -9.804762 0.000000 -0.000000
RightUpLeg  -26.815937 -17.694307 3.611635
RightLeg  50.321121 -0.000000 0.000000
RightFoot  8.813730 -3.564635 -17.243698
RightToeBase  -14.806396 0.000000 -0.000000
Spine  -14.657017 -4.707072 -1.972940
Spine1  15.556605 -2.675433 7.245367
Neck  5.319275 2.715374 -7.317189
Head  -11.153932 2.095146 2.501907
LeftShoulder  -5.373353 -10.373809 -26.267730
LeftArm  4.397686 39.646457 -34.659238
LeftForeArm  45.955219 -0.000000 0.000000
LeftHand  8.477664 -12.191144 4.658924
LeftHandThumb  0.000000 -0.000000 0.000000
RightShoulder  2.088634 5.753501 23.034737
RightArm  -3.370490 -50.509925 40.100731
RightForeArm  27.270064 -0.000000 0.000000
RightHand  5.526323 8.799652 2.523921
RightHandThumb  0.000000 -0.000000 0.000000
325
root  1.595196 37.767115 -56.762486 8.895056 1.076083 -4.315340
LeftUpLeg  -11.771245 5.135335 0.322836
LeftLeg  16.120713 -0.000000 0.000000
LeftFoot  -2.344629 8.967042 9.567972
LeftToeBase  -10.047998 0.000000 -0.000000
RightUpLeg  -27.220573 -17.750593 3.821796
RightLeg  49.577792 -0.000000 0.000000
RightFoot  8.561746 -3.462849 -17.018988
RightToeBase  -14.393327 0.000000 -0.000000
Spine  -14.543231 -4.724279 -1.935011
Spine1  15.540725 -2.704928 7.264222
Neck  5.294352 2.671037 -7.324402
Head  -11.282731 2.074076 2.503925
LeftShoulder  -5.296780 -10.561121 -26.227144
LeftArm  4.439949 39.633950 -34.669774
LeftForeArm  46.064467 -0.000000 0.000000
LeftHand  8.661429 -12.169661 4.650941
LeftHandThumb  0.000000 -0.000000 0.000000
RightShoulder  2.080918 5.706670 23.020850
RightArm  -3.332454 -50.428643 40.084406
RightForeArm  27.179738 -0.000000 0.000000
RightHand  5.491527 8.732631 2.364474
RightHandThumb  0.000000 -0.000000 0.000000
326
root  1.609531 37.762186 -56.592564 8.916214 1.251000 -4.353097
LeftUpLeg  -11.453923 5.232437 0.374802
LeftLeg  15.942191 -0.000000 0.000000
LeftFoot  -2.587696 8.697962 9.457884
LeftToeBase  -9.866462 0.000000 -0.000000
RightUpLeg  -27.581054 -17.920756 4.072937
RightLeg  48.785135 -0.000000 0.000000
RightFoot  8.383876 -3.385270 -16.947090
RightToeBase  -13.941090 0.000000 -0.000000
Spine  -14.500730 -4.767624 -1.858837
Spine1  15.341434 -2.757591 7.306153
Neck  5.384062 2.590582 -7.356690
Head  -11.182037 2.085905 2.525066
LeftShoulder  -5.277569 -10.543870 -26.178350
LeftArm  4.487931 39.659046 -34.695667
LeftForeArm  46.297869 -0.000000 0.000000
LeftHand  8.490700 -12.049577 4.655345
LeftHandThumb  0.000000 -0.000000 0.000000
RightShoulder  1.980998 5.429519 22.998398
RightArm  -3.237914 -50.184470 39.996043
RightForeArm  27.028719 -0.000000 0.000000
RightHand  5.570333 8.657766 2.502415
RightHandThumb  0.000000 -0.000000 0.000000
327
root  1.622507 37.761052 -56.452563 8.912431 1.392583 -4.379615
LeftUpLeg  -11.241093 5.265532 0.413226
LeftLeg  15.920589 -0.000000 0.000000
LeftFoot  -2.682897 8.633912 9.597695
LeftToeBase  -9.972385 0.000000 -0.000000
RightUpLeg  -27.954387 -18.063597 4.313855
RightLeg  47.934678 -0.000000 0.000000
RightFoot  8.212527 -3.188052 -16.814889
RightToeBase  -13.715757 0.000000 -0.000000
Spine  -14.412712 -4.797951 -1.809692
Spine1  15.314203 -2.802227 7.336531
Neck  5.332177 2.601004 -7.357511
Head  -11.339467 2.094485 2.551959
LeftShoulder  -5.188701 -10.732431 -26.153255
LeftArm  4.523766 39.710518 -34.706364
LeftForeArm  46.405466 -0.000000 0.000000
LeftHand  8.605391 -11.950038 4.609488
LeftHandThumb  0.000000 -0.000000 0.000000
RightShoulder  1.968371 5.444941 23.004995
RightArm  -3.251363 -50.142527 39.991452
RightForeArm  26.937764 -0.000000 0.000000
RightHand  5.538810 8.891305 2.583239
RightHandThumb  0.000000 -0.000000 0.000000
328
root  1.637299 37.757142 -56.268309 8.960213 1.640178 -4.453983
LeftUpLeg  -10.879689 5.106661 0.531053
LeftLeg  15.627220 -0.000000 0.000000
LeftFoot  -2.870733 8.558339 9.541476
LeftToeBase  -9.773560 0.000000 -0.000000
RightUpLeg  -28.234139 -18.352649 4.625236
RightLeg  46.949526 -0.000000 0.000000
RightFoot  8.066220 -3.034672 -16.781675
RightToeBase  -13.762268 0.000000 -0.000000
Spine  -14.427918 -4.858731 -1.697345
Spine1  15.081716 -2.880855 7.404086
Neck  5.527373 2.453822 -7.413687
Head  -11.140632 2.110505 2.557977
LeftShoulder  -5.205927 -10.490804 -26.157471
LeftArm  4.738606 39.502683 -34.633429
LeftForeArm  46.516354 -0.000000 0.000000
LeftHand  8.499342 -12.132641 4.552412
LeftHandThumb  0.000000 -0.000000 0.000000
RightShoulder  1.840943 5.208171 23.004260
RightArm  -3.271140 -49.971279 39.957835
RightForeArm  26.821252 -0.000000 0.000000
RightHand  5.508090 8.887809 2.534764
RightHandThumb  0.000000 -0.000000 0.000000
329
root  1.649235 37.754819 -56.135397 8.951954 1.793737 -4.491207
LeftUpLeg  -10.695748 5.071581 0.591457
LeftLeg  15.653108 -0.000000 0.000000
LeftFoot  -2.908283 8.499737 9.578944
LeftToeBase  -10.105913 0.000000 -0.000000
RightUpLeg  -28.597640 -18.478392 4.882337
RightLeg  46.057783 -0.000000 0.000000
RightFoot  7.956743 -2.819513 -16.604445
RightToeBase  -13.021231 0.000000 -0.000000
Spine  -14.331397 -4.890641 -1.641302
Spine1  15.142240 -2.936681 7.438706
Neck  5.456493 2.440136 -7.438283
Head  -11.377461 2.065098 2.589444
LeftShoulder  -5.084608 -10.750125 -26.157582
LeftArm  4.775067 39.619763 -34.625712
LeftForeArm  46.628071 -0.000000 0.000000
LeftHand  8.725207 -12.179229 4.630058
LeftHandThumb  0.000000 -0.000000 0.000000
RightShoulder  1.844050 5.294152 23.018033
RightArm  -3.264716 -49.872129 39.924415
RightForeArm  26.744902 -0.000000 0.000000
RightHand  5.500981 8.711504 2.554273
RightHandThumb  0.000000 -0.000000 0.000000
330
root  1.662546 37.749314 -55.954387 8.985504 2.061515 -4.583798
LeftUpLeg  -10.388856 5.032942 0.724160
LeftLeg  15.478095 -0.000000 0.000000
LeftFoot  -3.132934 8.324440 9.602071
LeftToeBase  -9.998982 0.000000 -0.000000
RightUpLeg  -28.852005 -18.802860 5.221133
RightLeg  45.030286 -0.000000 0.000000
RightFoot  7.764001 -2.602463 -16.544291
RightToeBase  -12.909600 0.000000 -0.000000
Spine  -14.354707 -4.951346 -1.525597
Spine1  14.991276 -3.022538 7.515050
Neck  5.562994 2.355423 -7.486982
Head  -11.302368 2.068877 2.626174
LeftShoulder  -5.061668 -10.624580 -26.168756
LeftArm  4.924247 39.556211 -34.553998
LeftForeArm  46.789661 -0.000000 0.000000
LeftHand  8.492271 -12.218572 4.672096
LeftHandThumb  0.000000 -0.000000 0.000000
RightShoulder  1.728774 5.127185 23.021273
RightArm  -3.279181 -49.682956 39.859294
RightForeArm  26.694587 -0.000000 0.000000
RightHand  5.482863 8.510331 2.603737
RightHandThumb  0.000000 -0.000000 0.000000
331
root  1.671031 37.745080 -55.823143 8.976986 2.222323 -4.627297
LeftUpLeg  -10.223004 5.018344 0.792230
LeftLeg  15.531512 -0.000000 0.000000
LeftFoot  -3.183333 8.264145 9.649734
LeftToeBase  -10.188453 0.000000 -0.000000
RightUpLeg  -29.205007 -18.948358 5.506276
RightLeg  44.112970 -0.000000 0.000000
RightFoot  7.607452 -2.416807 -16.272845
RightToeBase  -12.453428 0.000000 -0.000000
Spine  -14.256706 -4.984125 -1.468243
Spine1  15.079133 -3.081894 7.553034
Neck  5.466066 2.338973 -7.495704
Head  -11.477436 2.009310 2.627271
LeftShoulder  -4.927642 -10.903278 -26.177550
LeftArm  4.971561 39.629990 -34.531568
LeftForeArm  46.850159 -0.000000 0.000000
LeftHand  8.789132 -12.076039 4.593228
LeftHandThumb  0.000000 -0.000000 0.000000
RightShoulder  1.749910 5.280762 23.042719
RightArm  -3.338162 -49.695704 39.881400
RightForeArm  26.621935 -0.000000 0.000000
RightHand  5.473767 8.640093 2.559136
RightHandThumb  0.000000 -0.000000 0.000000
332
root  1.681601 37.738303 -55.642801 9.026446 2.497044 -4.743281
LeftUpLeg  -9.901072 4.773543 0.965406
LeftLeg  15.296682 -0.000000 0.000000
LeftFoot  -3.426910 8.238728 9.497315
LeftToeBase  -9.899076 0.000000 -0.000000
RightUpLeg  -29.425731 -19.267345 5.881367
RightLeg  42.975699 -0.000000 0.000000
RightFoot  7.389302 -2.150162 -16.147134
RightToeBase  -12.412102 0.000000 -0.000000
Spine  -14.281403 -5.053617 -1.346187
Spine1  14.945332 -3.179155 7.641968
Neck  5.505962 2.271451 -7.505664
Head  -11.377657 2.011738 2.626221
LeftShoulder  -4.895007 -10.764086 -26.188940
LeftArm  5.080903 39.520751 -34.506022
LeftForeArm  47.019736 -0.000000 0.000000
LeftHand  8.469100 -12.136923 4.693573
LeftHandThumb  0.000000 -0.000000 0.000000
RightShoulder  1.637904 5.176753 23.054806
RightArm  -3.350518 -49.484349 39.828985
RightForeArm  26.530766 -0.000000 0.000000
RightHand  5.472130 8.331910 2.655226
RightHandThumb  0.000000 -0.000000 0.000000
